<svg width="14" height="16" viewBox="0 0 14 16" fill="none" xmlns="http://www.w3.org/2000/svg">
<path d="M9.03125 8.8236L13.2619 4.53544C13.4143 4.38104 13.5 4.1716 13.5 3.9532V1.82354C13.5 1.60512 13.4144 1.39565 13.262 1.24121C13.1097 1.08677 12.903 1 12.6875 1H1.3125C1.09701 1 0.890349 1.08677 0.737976 1.24121C0.585603 1.39565 0.5 1.60512 0.5 1.82354V3.9532C0.5 4.17144 0.585313 4.38144 0.738063 4.53544L4.96875 8.8236" stroke="#515154" stroke-linecap="round" stroke-linejoin="round"/>
<path d="M4.96875 8.82373V13.97C4.96875 14.6395 5.5895 15.1312 6.23056 14.969L8.26181 14.4543C8.48162 14.3986 8.67675 14.27 8.81617 14.089C8.95559 13.908 9.0313 13.6849 9.03125 13.4553V8.82373" stroke="#515154" stroke-linecap="round" stroke-linejoin="round"/>
</svg>
